<svg width="23" height="21" viewBox="0 0 23 21" fill="none" xmlns="http://www.w3.org/2000/svg">
<path d="M23 9.45C23 8.89304 22.7797 8.3589 22.3876 7.96508C21.9955 7.57125 21.4636 7.35 20.9091 7.35H14.3018L15.3055 2.5515C15.3264 2.4465 15.3368 2.331 15.3368 2.2155C15.3368 1.785 15.1591 1.386 14.8768 1.1025L13.7686 0L6.88955 6.909C6.50273 7.2975 6.27273 7.8225 6.27273 8.4V18.9C6.27273 19.457 6.49302 19.9911 6.88514 20.3849C7.27726 20.7787 7.80909 21 8.36364 21H17.7727C18.6405 21 19.3827 20.475 19.6964 19.719L22.8536 12.3165C22.9477 12.075 23 11.823 23 11.55V9.45ZM0 21H4.18182V8.4H0V21Z" fill="white"/>
</svg>
